<svg xmlns="http://www.w3.org/2000/svg" version="1.1" xmlns:xlink="http://www.w3.org/1999/xlink" width="1000" height="1000"><svg width="1000" height="1000" viewBox="0 0 1000 1000" fill="none" xmlns="http://www.w3.org/2000/svg">
<rect width="1000" height="1000" rx="206" fill="#151515"></rect>
<path d="M621.074 396.998C644.352 410.333 672.954 410.332 696.231 396.995V396.995C732.97 375.944 745.734 327.921 715.546 298.229C660.433 244.021 584.6 210.523 500.857 210.523V210.523C499.033 210.523 497.584 212.007 497.584 213.832V282.928C497.584 309.725 511.928 334.472 535.18 347.793L621.074 396.998Z" fill="#F5F8FF"></path>
<path d="M679.721 529.376C643.972 508.899 599.378 508.898 563.629 529.376V529.376C527.929 549.827 505.57 588.014 505.57 629.157V629.157C505.57 670.301 527.929 708.488 563.629 728.939V728.939C599.378 749.417 643.972 749.416 679.721 728.939V728.939C715.422 708.489 737.781 670.301 737.781 629.157V629.157C737.781 588.014 715.422 549.826 679.721 529.376V529.376Z" fill="#F5F8FF"></path>
<path d="M323.394 293.051C287.694 313.501 265.336 351.689 265.336 392.832V392.832C265.336 433.975 287.695 472.163 323.396 492.613V492.613C359.144 513.09 403.737 513.089 439.485 492.613V492.613C475.187 472.163 497.547 433.975 497.547 392.832V392.832C497.547 351.689 475.187 313.501 439.487 293.051V293.051C403.738 272.574 359.143 272.573 323.394 293.051V293.051Z" fill="#F5F8FF"></path>
<path d="M344.412 603.097C344.4 603.097 344.389 603.1 344.379 603.106L321.937 615.962C275.057 642.82 258.395 704.396 299.021 740.015C352.798 787.165 423.462 815.779 500.854 815.779V815.779C503.437 815.779 505.499 813.645 505.499 811.063V740.165C505.499 712.46 490.67 686.874 466.63 673.102L344.445 603.106C344.435 603.1 344.424 603.097 344.412 603.097V603.097Z" fill="#F5F8FF"></path>
</svg><style>@media (prefers-color-scheme: light) { :root { filter: none; } }
@media (prefers-color-scheme: dark) { :root { filter: none; } }
</style></svg>