<svg width="160" height="38" viewBox="0 0 160 38" fill="none" xmlns="http://www.w3.org/2000/svg">
<rect width="38.0005" height="38.0005" rx="8" fill="#151515"/>
<path d="M51 29.8729V8.05469H59.1818C60.858 8.05469 62.2642 8.36719 63.4006 8.99219C64.544 9.61719 65.407 10.4766 65.9893 11.5703C66.5788 12.657 66.8736 13.8928 66.8736 15.2777C66.8736 16.6768 66.5788 17.9197 65.9893 19.0064C65.3999 20.093 64.5298 20.9489 63.3793 21.5739C62.2287 22.1918 60.8118 22.5007 59.1286 22.5007H53.706V19.2514H58.5959C59.576 19.2514 60.3786 19.081 61.0036 18.7401C61.6286 18.3991 62.0902 17.9304 62.3885 17.3338C62.6939 16.7372 62.8466 16.0518 62.8466 15.2777C62.8466 14.5036 62.6939 13.8217 62.3885 13.2322C62.0902 12.6428 61.625 12.1847 60.9929 11.858C60.3679 11.5241 59.5618 11.3572 58.5746 11.3572H54.9524V29.8729H51Z" fill="#151515"/>
<path d="M70.1362 29.8729V13.5093H73.9927V29.8729H70.1362Z" fill="#151515"/>
<path d="M72.0751 11.1868C71.4643 11.1868 70.9387 10.9844 70.4984 10.5795C70.0581 10.1676 69.8379 9.67401 69.8379 9.09872C69.8379 8.51634 70.0581 8.02273 70.4984 7.6179C70.9387 7.20597 71.4643 7 72.0751 7C72.693 7 73.2186 7.20597 73.6518 7.6179C74.0922 8.02273 74.3123 8.51634 74.3123 9.09872C74.3123 9.67401 74.0922 10.1676 73.6518 10.5795C73.2186 10.9844 72.693 11.1868 72.0751 11.1868Z" fill="#151515"/>
<path d="M81.1119 13.5093L84.4144 19.5498L87.7703 13.5093H91.8505L86.918 21.6911L91.9357 29.8729H87.8768L84.4144 23.9816L80.984 29.8729H76.8931L81.8789 21.6911L77.021 13.5093H81.1119Z" fill="#151515"/>
<path d="M101.463 30.1927C99.8219 30.1927 98.405 29.8518 97.2118 29.17C96.0257 28.481 95.1131 27.508 94.4739 26.2509C93.8347 24.9867 93.5151 23.4988 93.5151 21.7872C93.5151 20.1039 93.8347 18.6266 94.4739 17.3553C95.1202 16.0769 96.0222 15.0826 97.1799 14.3724C98.3375 13.6551 99.6976 13.2964 101.26 13.2964C102.269 13.2964 103.22 13.4597 104.115 13.7864C105.017 14.106 105.813 14.6032 106.502 15.2779C107.198 15.9526 107.744 16.812 108.142 17.856C108.54 18.893 108.739 20.1288 108.739 21.5634V22.746H95.3262V20.1465H105.042C105.035 19.4079 104.875 18.7509 104.563 18.1756C104.25 17.5933 103.813 17.1352 103.252 16.8014C102.698 16.4676 102.052 16.3006 101.313 16.3006C100.525 16.3006 99.8325 16.4924 99.236 16.8759C98.6394 17.2524 98.1742 17.7495 97.8404 18.3674C97.5137 18.9782 97.3468 19.6494 97.3397 20.3809V22.6501C97.3397 23.6018 97.5137 24.4185 97.8617 25.1004C98.2097 25.7751 98.6962 26.2935 99.3212 26.6558C99.9462 27.0109 100.678 27.1884 101.516 27.1884C102.077 27.1884 102.585 27.1103 103.039 26.9541C103.494 26.7907 103.888 26.5528 104.222 26.2403C104.556 25.9278 104.808 25.5407 104.978 25.0791L108.579 25.4839C108.352 26.4356 107.918 27.2666 107.279 27.9768C106.647 28.6799 105.838 29.2268 104.85 29.6174C103.863 30.0009 102.734 30.1927 101.463 30.1927Z" fill="#151515"/>
<path d="M115.858 8.05469V29.8729H112.001V8.05469H115.858Z" fill="#151515"/>
<path d="M133.748 8.05469H137.7V22.3089C137.7 23.8714 137.331 25.2457 136.592 26.4318C135.861 27.6179 134.831 28.5447 133.503 29.2124C132.175 29.8729 130.623 30.2031 128.847 30.2031C127.064 30.2031 125.509 29.8729 124.181 29.2124C122.853 28.5447 121.823 27.6179 121.091 26.4318C120.36 25.2457 119.994 23.8714 119.994 22.3089V8.05469H123.947V21.9787C123.947 22.8878 124.145 23.6974 124.543 24.4077C124.948 25.1179 125.516 25.6754 126.248 26.0803C126.979 26.478 127.846 26.6768 128.847 26.6768C129.849 26.6768 130.715 26.478 131.447 26.0803C132.185 25.6754 132.753 25.1179 133.151 24.4077C133.549 23.6974 133.748 22.8878 133.748 21.9787V8.05469Z" fill="#151515"/>
<path d="M145.299 8.05469L150.103 16.0447H150.274L155.1 8.05469H159.606L152.884 18.9638L159.713 29.8729H155.132L150.274 21.9361H150.103L145.245 29.8729H140.686L147.578 18.9638L140.771 8.05469H145.299Z" fill="#151515"/>
<path d="M25.0291 15.9042L29 13.629C26.9784 10.2593 23.2723 8 19.0328 8C18.9913 8 18.9498 8 18.9084 8.00134V12.3979L25.0291 15.9042Z" fill="#F5F8FF"/>
<path d="M23.6239 18.853L19.2119 21.3804V26.4362L23.6239 28.9635L28.036 26.4362V21.3804L23.6239 18.853Z" fill="#F5F8FF"/>
<path d="M10.0829 12.3999V17.4557L14.4949 19.983L18.907 17.4557V12.3999L14.4949 9.87256L10.0829 12.3999Z" fill="#F5F8FF"/>
<path d="M13.0871 22.918L9 25.2595C11.0054 28.6917 14.7477 31 19.0327 31C19.0915 31 19.1504 30.9987 19.2092 30.9973V26.4244L13.0885 22.918H13.0871Z" fill="#F5F8FF"/>
</svg>
