<svg width="38" height="38" viewBox="0 0 38 38" fill="none" xmlns="http://www.w3.org/2000/svg">
<rect width="38.0005" height="38.0005" rx="8" fill="#151515"/>
<path d="M25.0291 15.9042L29 13.629C26.9784 10.2593 23.2723 8 19.0328 8C18.9913 8 18.9498 8 18.9084 8.00134V12.3979L25.0291 15.9042Z" fill="#F5F8FF"/>
<path d="M23.6239 18.853L19.2119 21.3804V26.4362L23.6239 28.9635L28.036 26.4362V21.3804L23.6239 18.853Z" fill="#F5F8FF"/>
<path d="M10.0829 12.3999V17.4557L14.4949 19.983L18.907 17.4557V12.3999L14.4949 9.87256L10.0829 12.3999Z" fill="#F5F8FF"/>
<path d="M13.0871 22.918L9 25.2595C11.0054 28.6917 14.7477 31 19.0327 31C19.0915 31 19.1504 30.9987 19.2092 30.9973V26.4244L13.0885 22.918H13.0871Z" fill="#F5F8FF"/>
</svg>
