<svg width="109" height="24" viewBox="0 0 109 24" fill="none" xmlns="http://www.w3.org/2000/svg">
<path d="M0 22.8729V1.05469H8.18182C9.85795 1.05469 11.2642 1.36719 12.4006 1.99219C13.544 2.61719 14.407 3.47656 14.9893 4.57031C15.5788 5.65696 15.8736 6.89276 15.8736 8.2777C15.8736 9.67685 15.5788 10.9197 14.9893 12.0064C14.3999 13.093 13.5298 13.9489 12.3793 14.5739C11.2287 15.1918 9.81179 15.5007 8.12855 15.5007H2.70597V12.2514H7.59588C8.57599 12.2514 9.37855 12.081 10.0036 11.7401C10.6286 11.3991 11.0902 10.9304 11.3885 10.3338C11.6939 9.73722 11.8466 9.05185 11.8466 8.2777C11.8466 7.50355 11.6939 6.82173 11.3885 6.23224C11.0902 5.64276 10.625 5.18466 9.9929 4.85795C9.3679 4.52415 8.56179 4.35724 7.57457 4.35724H3.95242V22.8729H0Z" fill="#151515"/>
<path d="M19.1362 22.8729V6.50928H22.9927V22.8729H19.1362Z" fill="#151515"/>
<path d="M21.0751 4.18679C20.4643 4.18679 19.9387 3.98438 19.4984 3.57955C19.0581 3.16761 18.8379 2.67401 18.8379 2.09872C18.8379 1.51634 19.0581 1.02273 19.4984 0.617897C19.9387 0.205966 20.4643 0 21.0751 0C21.693 0 22.2186 0.205966 22.6518 0.617897C23.0922 1.02273 23.3123 1.51634 23.3123 2.09872C23.3123 2.67401 23.0922 3.16761 22.6518 3.57955C22.2186 3.98438 21.693 4.18679 21.0751 4.18679Z" fill="#151515"/>
<path d="M30.1119 6.50928L33.4144 12.5498L36.7703 6.50928H40.8505L35.918 14.6911L40.9357 22.8729H36.8768L33.4144 16.9816L29.984 22.8729H25.8931L30.8789 14.6911L26.021 6.50928H30.1119Z" fill="#151515"/>
<path d="M50.4625 23.1927C48.8219 23.1927 47.405 22.8518 46.2118 22.17C45.0257 21.481 44.1131 20.508 43.4739 19.2509C42.8347 17.9867 42.5151 16.4988 42.5151 14.7872C42.5151 13.1039 42.8347 11.6266 43.4739 10.3553C44.1202 9.07693 45.0222 8.08261 46.1799 7.37238C47.3375 6.65505 48.6976 6.29639 50.2601 6.29639C51.2686 6.29639 52.2203 6.45974 53.1152 6.78644C54.0172 7.10605 54.8127 7.6032 55.5016 8.27792C56.1976 8.95264 56.7445 9.81201 57.1422 10.856C57.5399 11.893 57.7388 13.1288 57.7388 14.5634V15.746H44.3262V13.1465H54.0421C54.035 12.4079 53.8752 11.7509 53.5627 11.1756C53.2502 10.5933 52.8134 10.1352 52.2523 9.80136C51.6983 9.46755 51.052 9.30065 50.3134 9.30065C49.525 9.30065 48.8325 9.49241 48.236 9.87593C47.6394 10.2524 47.1742 10.7495 46.8404 11.3674C46.5137 11.9782 46.3468 12.6494 46.3397 13.3809V15.6501C46.3397 16.6018 46.5137 17.4185 46.8617 18.1004C47.2097 18.7751 47.6962 19.2935 48.3212 19.6558C48.9462 20.0109 49.6777 20.1884 50.5158 20.1884C51.0769 20.1884 51.5847 20.1103 52.0392 19.9541C52.4938 19.7907 52.8879 19.5528 53.2218 19.2403C53.5556 18.9278 53.8077 18.5407 53.9781 18.0791L57.579 18.4839C57.3517 19.4356 56.9185 20.2666 56.2793 20.9768C55.6472 21.6799 54.8375 22.2268 53.8503 22.6174C52.8631 23.0009 51.7338 23.1927 50.4625 23.1927Z" fill="#151515"/>
<path d="M64.8579 1.05469V22.8729H61.0014V1.05469H64.8579Z" fill="#151515"/>
<path d="M82.7477 1.05469H86.7001V15.3089C86.7001 16.8714 86.3308 18.2457 85.5922 19.4318C84.8606 20.6179 83.8308 21.5447 82.5027 22.2124C81.1745 22.8729 79.6227 23.2031 77.8471 23.2031C76.0645 23.2031 74.5091 22.8729 73.1809 22.2124C71.8528 21.5447 70.823 20.6179 70.0914 19.4318C69.3599 18.2457 68.9941 16.8714 68.9941 15.3089V1.05469H72.9466V14.9787C72.9466 15.8878 73.1454 16.6974 73.5431 17.4077C73.948 18.1179 74.5162 18.6754 75.2477 19.0803C75.9792 19.478 76.8457 19.6768 77.8471 19.6768C78.8485 19.6768 79.715 19.478 80.4466 19.0803C81.1852 18.6754 81.7534 18.1179 82.1511 17.4077C82.5488 16.6974 82.7477 15.8878 82.7477 14.9787V1.05469Z" fill="#151515"/>
<path d="M94.2987 1.05469L99.1033 9.04474H99.2738L104.1 1.05469H108.606L101.884 11.9638L108.713 22.8729H104.132L99.2738 14.9361H99.1033L94.2454 22.8729H89.6857L96.5785 11.9638L89.771 1.05469H94.2987Z" fill="#151515"/>
</svg>
